<svg width="52" height="49" viewBox="0 0 52 49" fill="none" xmlns="http://www.w3.org/2000/svg">
<path d="M18.1672 32.6667H34.0883V35.3889H18.1672V32.6667Z" fill="#7BBD00"/>
<path d="M34.0883 38.1111H18.1672V40.8333H34.0883V38.1111Z" fill="#7BBD00"/>
<path d="M22.5486 22.3795C22.721 21.8927 22.6694 21.2979 22.5265 20.7554C22.3775 20.1898 22.1032 19.5803 21.7167 19.0142C20.9464 17.8855 19.6688 16.848 17.9431 16.7735C16.1561 16.6966 14.8209 17.86 13.9983 19.0948C13.581 19.7213 13.2708 20.399 13.0763 21.0225C12.887 21.629 12.7865 22.2499 12.8527 22.7462C12.8834 22.9765 13.0265 23.1748 13.2322 23.272C13.438 23.3693 13.6779 23.3522 13.8685 23.2267C14.3983 22.8777 14.9551 22.4001 15.4696 21.9588C15.7041 21.7578 15.9296 21.5644 16.1398 21.3941C16.8858 20.7896 17.4664 20.4451 17.9478 20.421C18.4048 20.398 18.9334 20.667 19.5989 21.1778C19.8368 21.3605 20.0677 21.5537 20.3069 21.754C20.392 21.8253 20.4787 21.8978 20.5666 21.9706C20.8901 22.2387 21.2345 22.514 21.5817 22.7293C21.7516 22.8348 21.9585 22.8566 22.1458 22.7889C22.333 22.7212 22.4808 22.5709 22.5486 22.3795Z" fill="#7BBD00"/>
<path d="M29.595 22.3795C29.4225 21.8927 29.474 21.2979 29.6169 20.7554C29.766 20.1898 30.0404 19.5803 30.4267 19.0142C31.197 17.8855 32.4747 16.848 34.2004 16.7735C35.9873 16.6966 37.3225 17.86 38.1451 19.0948C38.5625 19.7213 38.8726 20.399 39.0672 21.0225C39.2566 21.629 39.3569 22.2499 39.2908 22.7462C39.26 22.9765 39.117 23.1748 38.9112 23.272C38.7056 23.3693 38.4657 23.3522 38.275 23.2267C37.7452 22.8777 37.1883 22.4001 36.6739 21.9588C36.4396 21.7579 36.2138 21.5644 36.0036 21.3941C35.2576 20.7896 34.6771 20.4451 34.1958 20.421C33.7387 20.398 33.2101 20.667 32.5446 21.1778C32.3066 21.3606 32.0756 21.5539 31.8363 21.7542C31.7511 21.8256 31.6647 21.8978 31.5767 21.9706C31.2533 22.2387 30.9089 22.514 30.5618 22.7293C30.3919 22.8348 30.185 22.8566 29.9978 22.7889C29.8106 22.7212 29.6628 22.5709 29.595 22.3795Z" fill="#7BBD00"/>
<path fill-rule="evenodd" clip-rule="evenodd" d="M49.8137 27.651C49.1072 33.2966 46.5275 38.3409 42.7345 42.1068L42.7124 42.1944C42.4647 42.4147 42.2154 42.6293 41.9645 42.8387C37.7496 46.6722 32.2036 49 26.1278 49C20.7068 49 15.7077 47.147 11.6994 44.0247C11.1958 43.6615 10.6981 43.2782 10.2068 42.875L10.1549 42.7138C6.06769 38.9391 3.25772 33.7372 2.47061 27.8731C1.27401 26.9798 0.24594 25.7193 0.0376394 23.9742C-0.220588 21.811 0.849257 19.4222 3.26613 16.7658C3.34778 16.6759 3.43849 16.6001 3.53546 16.5382C6.75686 6.91553 15.6551 0 26.1278 0C36.7207 0 45.7029 7.07533 48.8288 16.8707C51.1787 19.4853 52.2171 21.8396 51.9624 23.9742C51.7708 25.5792 50.8856 26.7744 49.8137 27.651ZM13.2704 41.8302C21.7339 47.9112 31.8774 47.7143 40.2458 40.7636C40.2817 40.7308 40.3176 40.6979 40.3533 40.6648C40.8978 38.3983 41.1485 36.7458 41.1055 35.1693C41.0668 33.7509 40.7851 32.2688 40.1036 30.363C34.6418 29.1897 30.3547 28.5993 26.1187 28.5836C21.9128 28.5681 17.6581 29.1189 12.2638 30.3235C11.6689 32.3487 11.419 33.9226 11.4246 35.4305C11.4309 37.0878 11.746 38.8252 12.4558 41.1603C12.7218 41.3903 12.9934 41.6137 13.2704 41.8302ZM8.87061 37.1851C8.6306 34.9777 8.82258 32.9189 9.46898 30.4511C9.1158 30.394 8.70516 30.3197 8.25765 30.2244C7.42833 30.0476 6.44075 29.792 5.44467 29.4246C6.0845 32.2642 7.26564 34.8913 8.87061 37.1851ZM41.4086 27.8641C29.546 25.2528 22.6329 25.1286 10.7393 27.882C10.6441 27.8709 10.5228 27.856 10.3797 27.8364C9.98734 27.7826 9.43382 27.6947 8.79724 27.5591C7.5887 27.3016 6.15922 26.8881 4.96773 26.2569C4.92263 25.6774 4.89964 25.0914 4.89964 24.5C4.89964 12.4724 14.4039 2.72222 26.1278 2.72222C37.8518 2.72222 47.3559 12.4724 47.3559 24.5C47.3559 25.0415 47.3366 25.5783 47.2988 26.1097L47.2824 26.1192C46.0449 26.8286 44.4971 27.2832 43.2027 27.5591C42.5662 27.6947 42.0126 27.7826 41.6203 27.8364C41.5431 27.8468 41.4724 27.8561 41.4086 27.8641ZM42.918 30.3853C43.6432 32.6897 43.8681 34.6233 43.7211 36.6904C45.1744 34.4872 46.2448 31.9965 46.8345 29.3187C45.7451 29.7435 44.649 30.0311 43.7423 30.2244C43.4499 30.2868 43.1731 30.34 42.918 30.3853Z" fill="#7BBD00"/>
</svg>
