<svg width="46" height="48" viewBox="0 0 46 48" fill="none" xmlns="http://www.w3.org/2000/svg">
<path d="M20.4305 20.7565L20.431 11.6755L25.5447 11.6758L25.5442 20.7565H34.4938V25.9457H25.544L25.5435 35.0265L20.4297 35.0263L20.4302 25.9457H11.4819V20.7565H20.4305Z" fill="#7BBD00"/>
<path fill-rule="evenodd" clip-rule="evenodd" d="M9.9771 40.2046C13.1071 43.0733 16.5359 45.4417 20.4075 47.3093C22.4812 48.3097 24.9408 48.2185 26.9289 47.0676C30.2821 45.1266 33.2003 42.7906 36.0219 40.2046C42.0029 34.7227 45.4896 27.1781 45.7187 19.2221L45.9858 9.94495C46.0169 8.86508 45.9873 6.48649 45.9873 6.48649C44.6489 6.26232 43.2957 6.09795 41.9444 5.93371C37.7644 5.42582 33.6023 4.92018 29.9499 2.65487L27.3445 1.03903C25.1107 -0.346338 22.2443 -0.346351 20.0106 1.03903L17.5158 2.58638C13.3403 5.17604 8.25057 5.66686 3.32414 6.14193C2.20821 6.24947 1.10066 6.35624 0.0140173 6.48649C0.0140173 6.48649 -0.0175217 8.87935 0.0140173 9.97453L0.280265 19.2221C0.509335 27.1781 3.99596 34.7227 9.9771 40.2046ZM2.55715 8.82409C2.55812 9.23715 2.56177 9.62037 2.56979 9.89877L2.83605 19.1463C3.04414 26.3734 6.21121 33.2567 11.6908 38.279C14.6461 40.9875 17.869 43.2119 21.5053 44.966C22.8265 45.6034 24.4031 45.5428 25.662 44.814C28.8008 42.9971 31.5676 40.7907 34.308 38.279C39.7878 33.2567 42.9547 26.3734 43.1629 19.1462L43.4299 9.86919C43.4384 9.57873 43.4421 9.17112 43.443 8.73445C42.8445 8.65622 42.2368 8.5824 41.6155 8.5069L41.5458 8.49847C40.1712 8.33138 38.7302 8.1552 37.2987 7.90872C34.4299 7.41471 31.4285 6.61272 28.6164 4.86871L26.0111 3.25288C24.5959 2.37517 22.7593 2.37517 21.3441 3.25288L18.8492 4.80024C15.885 6.63866 12.6106 7.5098 9.45703 8.02482C7.50128 8.34422 5.3948 8.54841 3.42125 8.7399C3.13003 8.76805 2.84169 8.79607 2.55715 8.82409Z" fill="#7BBD00"/>
</svg>
