<svg width="71" height="49" viewBox="0 0 71 49" fill="none" xmlns="http://www.w3.org/2000/svg">
<path fill-rule="evenodd" clip-rule="evenodd" d="M65.1112 24.2994L53.1284 24.3091C53.3251 24.8632 53.4323 25.4596 53.4329 26.0809L53.4338 27.2147C53.4352 28.9634 52.5907 30.5154 51.286 31.4852C51.7997 32.302 52.097 33.2681 52.0979 34.3036L52.0988 35.4374C52.1013 38.3731 49.7188 40.7551 46.7777 40.7574L45.8162 40.7583C46.0129 41.3124 46.1203 41.9086 46.1209 42.5299L46.1217 43.6639C46.1241 46.5996 43.7417 48.9816 40.8004 48.9839L21.1608 49C9.48353 49.0096 0.00957542 39.5685 7.1318e-06 27.913C-0.00727116 19.0315 5.55689 11.096 13.9192 8.06143L35.1869 0.343874C37.2916 -0.419819 39.649 0.112108 41.2201 1.70506C44.1383 4.6645 43.0176 9.64463 39.1117 11.074L35.0552 12.5585L65.1016 12.5341C68.3564 12.5314 70.9973 15.1631 71 18.4119C71.0027 21.6608 68.3661 24.2967 65.1112 24.2994ZM65.1044 16.0779C66.3985 16.0768 67.4486 17.1232 67.4496 18.4149C67.4507 19.7066 66.4024 20.7545 65.1083 20.7556L63.896 20.7566C63.8991 20.7129 63.9008 20.6689 63.901 20.6246V20.6145C63.8998 19.1467 62.3092 17.9579 60.3483 17.9595C58.3876 17.9611 56.799 19.1523 56.8002 20.6204C56.8002 20.668 56.802 20.7153 56.8052 20.7623L38.1923 20.7775L38.1953 24.3214L48.1059 24.3134C49.0863 24.3125 49.8816 25.1053 49.8825 26.0837L49.8834 27.2177C49.8843 28.1964 49.09 28.9902 48.1096 28.9911L38.1991 28.9992L38.2021 32.543L46.7709 32.5359C47.7512 32.5352 48.5467 33.3278 48.5475 34.3064L48.5484 35.4403C48.5493 36.4189 47.7551 37.2129 46.7747 37.2136L34.1589 37.2239L34.1617 40.7677L40.7937 40.7624C41.7741 40.7615 42.5696 41.5543 42.5705 42.5329L42.5714 43.6667C42.5721 44.6453 41.778 45.4393 40.7976 45.44L21.1577 45.4562C11.4414 45.4641 3.55835 37.6084 3.55039 27.91C3.54432 20.5201 8.17416 13.9171 15.1324 11.3921L36.3999 3.67436C37.1987 3.38465 38.0934 3.58647 38.6897 4.19105C39.7973 5.31426 39.3719 7.20436 37.8895 7.74674L33.833 9.23142C30.1065 10.5951 31.0891 16.1057 35.058 16.1024L65.1044 16.0779Z" fill="white"/>
<path d="M60.3673 40.9942C63.3496 40.9918 65.6911 38.7623 65.6888 35.9272C65.6867 33.2947 60.3558 26.8189 60.3558 26.8189C60.3558 26.8189 55.0353 33.1008 55.0377 35.9359C55.04 38.7709 57.385 40.9966 60.3673 40.9942Z" fill="white"/>
</svg>
