<svg width="50" height="50" viewBox="0 0 50 50" fill="none" xmlns="http://www.w3.org/2000/svg">
<path fill-rule="evenodd" clip-rule="evenodd" d="M49.6657 2.11016L48.301 1.89257L47.9431 0.553534L50 0L49.6657 2.11016ZM31.3969 21.2842C30.2201 22.0111 30.2196 22.0104 30.2196 22.0104L30.2178 22.0075L30.2138 22.0008L30.2004 21.9788L30.1533 21.9C30.1134 21.8325 30.0566 21.7358 29.9864 21.6125C29.8458 21.3664 29.6509 21.0146 29.4274 20.5824C28.9824 19.7221 28.4155 18.5266 27.9433 17.2064C27.4752 15.8979 27.0753 14.3991 27.0134 12.9487C26.9518 11.5042 27.2214 9.93626 28.2919 8.70822C29.2556 7.60273 31.0718 6.58777 32.9793 5.70757C34.9577 4.79466 37.2844 3.91853 39.4887 3.15987C41.6979 2.39951 43.8095 1.74862 45.3667 1.28822C46.1461 1.05784 46.7881 0.8747 47.2362 0.748943C47.4602 0.686043 47.6359 0.637479 47.7561 0.604497L47.8939 0.566857L47.9431 0.553534C47.9431 0.553534 47.9431 0.553534 48.301 1.89257C49.6657 2.11016 49.6657 2.11016 49.6657 2.11016L49.6576 2.1619L49.634 2.30848C49.6131 2.43652 49.5824 2.62397 49.5426 2.86312C49.463 3.34136 49.3468 4.02662 49.1999 4.85712C48.9061 6.51707 48.4889 8.76229 47.9959 11.0969C47.5038 13.4266 46.9313 15.8685 46.325 17.9135C46.0223 18.935 45.7044 19.8804 45.3758 20.6734C45.0603 21.4346 44.6871 22.1762 44.2343 22.6958C43.2636 23.8092 41.7528 24.1569 40.4344 24.2455C39.0572 24.338 37.5331 24.1698 36.1597 23.9276C34.7736 23.683 33.4749 23.3509 32.5277 23.0818C32.0524 22.9469 31.6618 22.8267 31.3882 22.7398C31.2514 22.6962 31.1436 22.661 31.0689 22.6362L30.9583 22.599L30.9515 22.5967L30.9493 22.5959C30.9493 22.5959 30.948 22.5954 31.3969 21.2842ZM31.3969 21.2842L30.2196 22.0104L30.4797 22.4341L30.9493 22.5959L31.3969 21.2842ZM32.3245 20.1287C32.5675 20.2049 32.8932 20.3039 33.2804 20.4139C34.1715 20.667 35.3739 20.9737 36.6382 21.1967C37.9152 21.422 39.1911 21.55 40.2499 21.4789C41.3675 21.4039 41.929 21.1284 42.1538 20.8705C42.2985 20.7044 42.5332 20.3104 42.8238 19.6089C43.1012 18.9392 43.3879 18.0949 43.676 17.1232C44.2515 15.1816 44.8064 12.8221 45.2921 10.522C45.777 8.22687 46.1882 6.01354 46.4786 4.37253C46.5126 4.18097 46.5448 3.99728 46.5753 3.82225C46.4381 3.86234 46.2956 3.90424 46.148 3.94788C44.6155 4.40091 42.545 5.03936 40.3856 5.78257C38.2211 6.52747 35.9924 7.36913 34.1341 8.22673C32.2046 9.11692 30.9027 9.92503 30.3723 10.5335C29.9487 11.0194 29.7292 11.7664 29.7747 12.8302C29.8197 13.8881 30.1228 15.0909 30.5445 16.2699C30.962 17.4369 31.4715 18.5145 31.8807 19.3055C32.0533 19.6392 32.2062 19.9186 32.3245 20.1287ZM5.89109 5.60069L5.53305 6.93977L4.1683 7.15729L3.83403 5.04716L5.89109 5.60069ZM19.2696 22.6978C20.4464 23.4245 20.4467 23.4238 20.4467 23.4238L20.4484 23.4212L20.452 23.4153L20.4633 23.3966L20.5025 23.3309C20.5358 23.2749 20.5827 23.1949 20.6406 23.0936C20.7561 22.8909 20.9164 22.6017 21.0998 22.247C21.4649 21.5414 21.931 20.5589 22.3198 19.4717C22.7044 18.3963 23.0386 17.1505 23.0904 15.9352C23.1419 14.7257 22.9182 13.3747 21.9876 12.3072C21.1639 11.3623 19.6398 10.5181 18.092 9.80386C16.473 9.05675 14.573 8.34166 12.7781 7.72376C10.9781 7.10433 9.2586 6.57432 7.99072 6.19945C7.35616 6.01188 6.83326 5.8627 6.46803 5.76025C6.28548 5.70896 6.14232 5.66931 6.04421 5.64241L5.93158 5.61169L5.89109 5.60069C5.89109 5.60069 5.89109 5.60069 5.53305 6.93977C4.1683 7.15729 4.1683 7.15729 4.1683 7.15729L4.17509 7.19985L4.19438 7.31936C4.21131 7.42375 4.23628 7.57653 4.2687 7.77117C4.33351 8.1606 4.42812 8.71834 4.5477 9.39419C4.78667 10.7448 5.12622 12.5723 5.52766 14.4731C5.92827 16.3691 6.39506 18.3611 6.89061 20.0326C7.13796 20.8673 7.39914 21.6449 7.67109 22.301C7.92964 22.9251 8.24595 23.5605 8.64297 24.0158C9.50153 25.0006 10.818 25.29 11.9082 25.3632C13.0572 25.4404 14.319 25.3 15.4442 25.1016C16.5819 24.9008 17.6462 24.6284 18.4213 24.4084C18.8104 24.2979 19.1305 24.1995 19.3549 24.1281C19.4672 24.0924 19.5558 24.0633 19.6174 24.0429L19.6894 24.0188L19.7095 24.012L19.7174 24.0093C19.7174 24.0093 19.7185 24.0088 19.2696 22.6978ZM19.2696 22.6978L20.4467 23.4238L20.1868 23.8475L19.7174 24.0093L19.2696 22.6978ZM18.3404 21.5412C18.4268 21.3858 18.5313 21.193 18.6467 20.9699C18.9757 20.3339 19.3843 19.4692 19.7185 18.5351C20.0569 17.5893 20.294 16.6396 20.3291 15.8167C20.3645 14.9879 20.1909 14.4579 19.9072 14.1325C19.5168 13.6847 18.5071 13.0474 16.9371 12.3229C15.4382 11.6314 13.6364 10.9505 11.8813 10.3465C10.156 9.75271 8.50022 9.24128 7.26275 8.87486C7.26482 8.88637 7.26689 8.89801 7.26896 8.90952C7.50457 10.2414 7.8383 12.0369 8.23144 13.8984C8.62569 15.7647 9.07481 17.6741 9.53967 19.2422C9.77238 20.0272 10.0023 20.7039 10.223 21.2365C10.457 21.8009 10.6345 22.0886 10.7233 22.1905C10.836 22.3198 11.2035 22.5369 12.0928 22.5967C12.9235 22.6524 13.937 22.5522 14.9656 22.3707C15.9816 22.1915 16.9497 21.9445 17.6686 21.7405C17.9311 21.6659 18.1586 21.5975 18.3404 21.5412ZM15.3136 34.759C14.9633 34.7791 14.7911 34.8291 14.7485 34.8484C14.122 35.1325 12.2202 35.7974 10.5787 36.3597C9.73534 36.6485 8.92694 36.9216 8.3297 37.1223C8.31684 37.1266 8.30399 37.1311 8.29128 37.1352V44.6256C8.53435 44.6159 8.79511 44.6058 9.06278 44.5961C10.2067 44.5544 11.5684 44.5137 12.1582 44.5373C14.6348 44.6366 16.4938 45.2245 18.2161 45.7692L18.2527 45.7809C19.8669 46.2913 21.3621 46.7603 23.3207 46.908C23.874 46.9497 24.4104 47.0032 24.9121 47.0534L24.9187 47.0541C26.8462 47.2468 28.1145 47.3451 29.0963 46.9873C29.8616 46.7085 32.6589 45.4074 35.4813 43.9832C36.8763 43.2792 38.2446 42.5616 39.333 41.9473C39.8782 41.6397 40.3407 41.3649 40.6961 41.1356C40.8738 41.0209 41.0154 40.9236 41.1227 40.844C41.1757 40.8045 41.2161 40.7726 41.2454 40.7481C41.2758 40.7226 41.2867 40.7114 41.2846 40.7136C41.422 40.5734 41.569 40.0865 41.3323 39.6269C41.237 39.4419 41.079 39.2712 40.8118 39.1553C40.5352 39.0355 40.065 38.9428 39.3182 39.0657C37.6349 39.3427 35.6253 40.1553 33.6175 40.9749L33.5884 40.9867C32.6021 41.3893 31.613 41.7931 30.7359 42.0865C29.8932 42.3682 28.9569 42.6198 28.1421 42.5709C27.0221 42.5036 25.0585 42.2106 23.4394 41.9481C22.6158 41.8146 21.8584 41.6851 21.3071 41.5891C21.0314 41.5411 20.8067 41.5013 20.6508 41.4736L20.4077 41.4299L20.6689 38.6792L26.9863 38.7552C26.9894 38.7551 26.9934 38.7546 26.9985 38.7542C27.031 38.7513 27.1063 38.7422 27.2172 38.7135C27.436 38.657 27.8102 38.5208 28.2809 38.1864C28.4269 38.0825 28.6175 37.8912 28.7951 37.6343C28.8687 37.5278 28.9317 37.4223 28.9837 37.3222C28.1326 37.274 27.3178 37.1315 26.6957 36.9964C26.308 36.9122 25.9814 36.8279 25.7497 36.764C25.6336 36.7319 25.5406 36.7049 25.475 36.6853C25.4573 36.6799 25.4415 36.6752 25.4278 36.6711L17.6933 34.9446C17.6773 34.9419 17.6527 34.9376 17.6204 34.9322C17.5536 34.9209 17.4544 34.9051 17.3311 34.8872C17.0829 34.8513 16.7445 34.8086 16.3787 34.7805C16.0088 34.7521 15.6365 34.7404 15.3136 34.759ZM17.9654 33.5852L18.2166 32.2219L18.2412 32.2264L26.142 33.99L26.2006 34.0086L26.2114 34.012L26.264 34.028C26.3124 34.0424 26.3864 34.064 26.4822 34.0904C26.6742 34.1433 26.9507 34.2148 27.2802 34.2864C27.9518 34.4322 28.7909 34.5666 29.5681 34.5666C30.3464 34.5666 31.1915 34.8567 31.6474 35.6874C32.0371 36.3973 31.941 37.165 31.8041 37.6716C31.6893 38.0961 31.4932 38.5338 31.2413 38.9455C31.6618 38.7796 32.1073 38.598 32.5759 38.4067L32.6624 38.3713C34.5657 37.5944 36.8484 36.6625 38.8708 36.3296C41.2194 35.9431 42.9817 36.7889 43.7878 38.3543C44.4976 39.7327 44.3394 41.5514 43.2553 42.6575C42.9838 42.9345 42.5796 43.2169 42.1911 43.4676C41.7719 43.7382 41.2573 44.0427 40.6881 44.364C39.5476 45.0076 38.1373 45.7465 36.7232 46.4602C33.9275 47.871 30.9845 49.2493 30.0399 49.5935C28.4007 50.1909 26.5045 50.0001 24.8197 49.8307C24.7611 49.8249 24.7028 49.8189 24.6446 49.8133C24.1362 49.7624 23.6306 49.7119 23.1136 49.6728C20.8197 49.4999 19.0612 48.9439 17.4554 48.4359L17.4218 48.4254C15.6933 47.8786 14.1377 47.3916 12.0479 47.3078C11.5891 47.2895 10.354 47.3235 9.16325 47.367C8.58327 47.3881 8.03536 47.4105 7.63212 47.4279C7.43064 47.4365 7.26565 47.4437 7.15095 47.4488L5.52752 47.5235V35.1354L6.73998 34.7318C6.91023 34.675 7.15482 34.593 7.45179 34.4932C8.04586 34.2936 8.84887 34.0223 9.6856 33.7357C11.4042 33.1469 13.1374 32.5362 13.6101 32.3219C14.117 32.0919 14.693 32.0173 15.1555 31.9907C15.6456 31.9626 16.1511 31.9821 16.5903 32.0159C17.0337 32.05 17.4357 32.1009 17.7257 32.1429C17.8714 32.164 17.9908 32.1831 18.0753 32.1973C18.1174 32.2043 18.151 32.2102 18.1749 32.2143L18.2035 32.2195L18.2121 32.221L18.2148 32.2215L18.2166 32.2219C18.2166 32.2219 18.2166 32.2219 17.9654 33.5852Z" fill="#7BBD00"/>
<path fill-rule="evenodd" clip-rule="evenodd" d="M40.2829 10.1291C40.8623 10.6274 40.9295 11.5026 40.4328 12.084C36.3144 16.9044 31.1865 23.971 28.9226 29.7143C28.642 30.4263 27.8391 30.7753 27.1295 30.4937C26.4197 30.2121 26.0719 29.4067 26.3526 28.6946C28.7893 22.513 34.1615 15.1637 38.3343 10.2795C38.8311 9.69808 39.7035 9.63084 40.2829 10.1291Z" fill="#7BBD00"/>
<path fill-rule="evenodd" clip-rule="evenodd" d="M12.9633 14.576C12.364 15.05 12.2611 15.9218 12.7336 16.523C15.8328 20.4668 19.2142 25.5157 20.8204 29.7025C21.0945 30.417 21.8942 30.7733 22.6064 30.4983C23.3187 30.2232 23.6738 29.4211 23.3998 28.7065C21.6423 24.1254 18.054 18.815 14.904 14.8064C14.4315 14.2052 13.5626 14.102 12.9633 14.576Z" fill="#7BBD00"/>
<path d="M0 31.9773H8.29128V50H0V31.9773Z" fill="#7BBD00"/>
</svg>
