<svg width="110" height="105" viewBox="0 0 110 105" fill="none" xmlns="http://www.w3.org/2000/svg">
<path fill-rule="evenodd" clip-rule="evenodd" d="M78.1579 22.8037V61.6273C78.1579 65.8453 76.5722 69.1877 73.9643 71.4024C71.4192 73.5634 68.1357 74.4553 64.9955 74.3233C61.3644 74.1707 57.5726 72.5883 55.0258 69.6325C54.3687 74.9559 56.2618 78.4922 57.1227 79.4248L59.0908 81.557L54.8451 85.5099L52.8773 83.378C50.5221 80.827 47.9918 74.81 49.6106 66.9541C47.1081 67.483 44.4817 67.4763 42.0976 66.969C39.5019 66.4169 36.9496 65.2287 35.0144 63.2323C33.0336 61.1886 31.8421 58.4366 31.8421 55.116C31.8421 50.3372 33.5428 46.8834 36.5773 44.3609C39.3872 42.0252 43.1976 40.6263 47.0528 39.3733C47.9568 39.0794 48.8805 38.7881 49.8207 38.4918C57.1696 36.1748 65.5229 33.5409 73.3934 26.8526L78.1579 22.8037ZM57.7824 61.4456C59.0008 59.2015 60.6766 56.8011 62.9411 54.2744L64.8774 52.1135L60.5741 48.2237L58.6378 50.3846C55.7709 53.5839 53.6786 56.6912 52.197 59.6443C50.0222 61.2499 46.5184 61.966 43.2972 61.2807C41.5508 60.9092 40.1228 60.167 39.1632 59.1768C38.2493 58.2343 37.6316 56.9435 37.6316 55.116C37.6316 51.9606 38.6447 50.1904 40.269 48.84C42.1176 47.3032 44.911 46.1808 48.8354 44.9051C49.691 44.6272 50.587 44.346 51.5179 44.0539C57.5355 42.1662 65.0045 39.8233 72.3684 34.891V61.6273C72.3684 64.2874 71.4213 65.9474 70.226 66.9623C68.968 68.0307 67.1782 68.5955 65.2375 68.5138C61.3939 68.3525 57.9726 65.8288 57.7824 61.4456Z" fill="white"/>
<path fill-rule="evenodd" clip-rule="evenodd" d="M55 101.752C53.7408 104.369 53.7388 104.369 53.7388 104.369L53.7353 104.367L53.7252 104.362L53.6904 104.345L53.5659 104.283C53.4586 104.23 53.3034 104.152 53.1034 104.05C52.7033 103.846 52.1244 103.545 51.3917 103.15C49.9267 102.36 47.8457 101.192 45.3533 99.6682C40.3746 96.6241 33.724 92.1392 27.0594 86.3809C13.8472 74.9652 0 58.0357 0 36.9914C0 27.5337 3.11691 18.3735 8.45689 11.525C13.8106 4.65901 21.5148 0 30.5757 0C41.3351 0 49.5026 6.12569 55 14.7621C60.4971 6.1261 68.6646 0 79.4243 0C88.486 0 96.1904 4.65983 101.544 11.5262C106.884 18.3749 110 27.5352 110 36.9914C110 57.2374 96.1287 74.1695 82.96 85.7532C76.3053 91.6071 69.6642 96.2412 64.6927 99.4103C62.2041 100.997 60.1263 102.221 58.6644 103.052C57.9335 103.467 57.3557 103.785 56.9571 104C56.758 104.108 56.6034 104.19 56.4969 104.246L56.3733 104.312L56.3391 104.329L56.3258 104.336C56.3258 104.336 56.3238 104.337 55 101.752ZM13.0151 15.1099C8.51406 20.8824 5.78947 28.7644 5.78947 36.9914C5.78947 55.428 17.9948 70.8789 30.8353 81.973C37.1971 87.4696 43.5727 91.7723 48.3638 94.7019C50.7563 96.1648 52.7459 97.2805 54.1304 98.0271C54.4384 98.1931 54.716 98.3408 54.9618 98.4702C55.2125 98.3309 55.497 98.1713 55.8134 97.9916C57.2009 97.2029 59.1939 96.029 61.5902 94.5015C66.3885 91.4426 72.7737 86.9841 79.1453 81.3793C92.0292 70.0462 104.211 54.5983 104.211 36.9914C104.211 28.7658 101.486 20.8835 96.9856 15.1107C92.4984 9.35564 86.3624 5.81439 79.4243 5.81439C69.8315 5.81439 62.4059 12.1154 57.6003 21.9801L55 27.3174L52.3999 21.9801C47.5935 12.1149 40.1682 5.81439 30.5757 5.81439C23.6384 5.81439 17.5024 9.35503 13.0151 15.1099Z" fill="white"/>
<path d="M55 101.752L56.3258 104.336L55.0402 105L53.7388 104.369L55 101.752Z" fill="white"/>
</svg>
